<?xml version="1.0" encoding="UTF-8"?>
<svg version="1.1" xmlns="http://www.w3.org/2000/svg" width="480" height="480">
<path d="M0 0 C158.4 0 316.8 0 480 0 C480 158.4 480 316.8 480 480 C321.6 480 163.2 480 0 480 C0 321.6 0 163.2 0 0 Z " fill="#CBF5F1" transform="translate(0,0)"/>
<path d="M0 0 C53.46 0 106.92 0 162 0 C158.535 5.445 158.535 5.445 155 11 C152.75711063 15.15859072 152.75711063 15.15859072 150.52734375 19.32421875 C149.01359579 21.97618129 147.35460776 24.40436592 145.5625 26.875 C141.43671746 32.59815409 138.2628161 38.75844382 135 45 C131.34090909 51.82954545 131.34090909 51.82954545 129 53 C128.78923828 53.87978516 128.78923828 53.87978516 128.57421875 54.77734375 C127.85245333 57.57111601 126.5359211 59.25319181 124.8125 61.5625 C121.77296171 65.79943216 119.22978236 70.09058405 116.7890625 74.69140625 C110.88253956 85.61460479 104.52327786 96.3143885 97.94921875 106.84765625 C95.98078752 109.78875713 95.98078752 109.78875713 95.11512756 112.45455933 C93.7564552 115.64135002 92.5451042 117.62480848 90 120 C84.16319466 121.50499836 78.41452745 121.28137452 72.421875 121.16015625 C70.68645338 121.16140547 68.9510296 121.16720501 67.21563721 121.17735291 C62.6583919 121.19247475 58.10359486 121.14883703 53.54675293 121.09191895 C48.90100659 121.0430505 44.25533738 121.0447819 39.609375 121.04492188 C34.39429519 121.04494945 29.17990155 121.04061114 23.96502686 120.99073792 C23.17435822 120.98456955 22.38368958 120.97840118 21.56906128 120.9720459 C20.0900582 120.95991496 18.61108021 120.94385871 17.13217163 120.92320251 C13.44277732 120.84205243 13.44277732 120.84205243 10 122 C10 121.34 10 120.68 10 120 C9.18939747 120.00460896 8.37879494 120.00921793 7.54362869 120.01396656 C-12.16907632 120.12432996 -31.88172818 120.20710016 -51.59467697 120.25906086 C-61.12768388 120.28485582 -70.66048472 120.32003094 -80.19335938 120.37719727 C-88.50105399 120.42699279 -96.8085994 120.45928162 -105.1164391 120.47044247 C-109.51652192 120.47696781 -113.91617782 120.49233063 -118.31612396 120.52865028 C-122.45628897 120.56254917 -126.5958506 120.5730655 -130.7361412 120.56553841 C-132.25674848 120.56691571 -133.7773756 120.57688511 -135.29786301 120.59602737 C-137.372883 120.62087293 -139.44561915 120.61494003 -141.52069092 120.60127258 C-143.26287966 120.60818603 -143.26287966 120.60818603 -145.04026413 120.61523914 C-148.94117155 119.80435904 -149.8531159 118.26556067 -152 115 C-152.763125 114.030625 -153.52625 113.06125 -154.3125 112.0625 C-156.76766913 108.6207445 -158.59445403 104.91652361 -160.4375 101.125 C-162.76714269 96.33444955 -165.26215254 91.86407691 -168.3203125 87.5 C-171.03491946 83.45965476 -173.46802917 79.24928213 -175.92919922 75.05102539 C-177.46693153 72.44951016 -178.85354553 70.14645447 -181 68 C-181.66666667 66.33333333 -182.33333333 64.66666667 -183 63 C-183.69348529 61.76239548 -184.40260229 60.53345387 -185.125 59.3125 C-187 56 -187 56 -187 54 C-185.51875389 54.00333092 -185.51875389 54.00333092 -184.00758362 54.00672913 C-174.72200971 54.02696082 -165.43644025 54.04197227 -156.15084934 54.05181217 C-151.3765172 54.05704093 -146.60220279 54.06413844 -141.82788086 54.07543945 C-137.22433738 54.0862686 -132.62081101 54.09227689 -128.01725578 54.09487724 C-126.25690377 54.09673144 -124.49655274 54.10035196 -122.73620796 54.10573006 C-120.27927723 54.11294086 -117.82241805 54.11399093 -115.36547852 54.11352539 C-114.63036545 54.11712067 -113.89525238 54.12071594 -113.13786316 54.12442017 C-109.78416893 54.41400668 -109.78416893 54.41400668 -107 53 C-104.56603981 52.90501354 -102.16057048 52.87441583 -99.72631836 52.88647461 C-98.58493156 52.88625557 -98.58493156 52.88625557 -97.42048645 52.8860321 C-94.89357702 52.88673138 -92.36674038 52.89452445 -89.83984375 52.90234375 C-88.0924941 52.90420788 -86.34514393 52.9056318 -84.59779358 52.90663147 C-79.98968066 52.91045707 -75.38159905 52.92028771 -70.77349854 52.93133545 C-66.07491479 52.94154866 -61.37632601 52.9461289 -56.67773438 52.95117188 C-47.45180913 52.96190995 -38.22590716 52.97898687 -29 53 C-28.814375 51.7934375 -28.814375 51.7934375 -28.625 50.5625 C-28.41875 49.716875 -28.2125 48.87125 -28 48 C-27.34 47.67 -26.68 47.34 -26 47 C-25.29299152 45.08097697 -24.58889318 43.16081219 -23.90234375 41.234375 C-22.40358812 37.52317058 -20.20332208 34.32599573 -18 31 C-13.72602511 24.419609 -9.61814049 17.75372448 -5.625 11 C-5.18389893 10.25758057 -4.74279785 9.51516113 -4.28833008 8.75024414 C-3.87607178 8.04891357 -3.46381348 7.34758301 -3.0390625 6.625 C-2.66990723 5.99851562 -2.30075195 5.37203125 -1.92041016 4.7265625 C-0.85518736 2.844273 -0.85518736 2.844273 0 0 Z " fill="#9CF3EA" transform="translate(301,0)"/>
<path d="M0 0 C0.66 0 1.32 0 2 0 C2 124.08 2 248.16 2 376 C-20.11 376 -42.22 376 -65 376 C-59.375 362.5 -59.375 362.5 -56 357 C-55.34 357 -54.68 357 -54 357 C-53.896875 356.443125 -53.79375 355.88625 -53.6875 355.3125 C-53 353 -53 353 -51.3125 350.625 C-49.66366769 348.02653985 -49.66366769 348.02653985 -50.6875 345.0625 C-51.120625 344.051875 -51.55375 343.04125 -52 342 C-52.66666667 340 -53.33333333 338 -54 336 C-54.66 336 -55.32 336 -56 336 C-56.29132813 335.45472656 -56.58265625 334.90945313 -56.8828125 334.34765625 C-59.09068028 330.2860127 -61.37540551 326.37020185 -64 322.5625 C-66.61987796 318.7128834 -68.68512185 314.75861447 -70.69921875 310.56640625 C-72.5454973 306.92374856 -74.69214942 303.48756062 -76.86328125 300.03125 C-78 298 -78 298 -78 296 C-78.66 296 -79.32 296 -80 296 C-81.37908234 293.68511178 -82.69780047 291.35780313 -84 289 C-84.43957031 288.26652344 -84.87914062 287.53304688 -85.33203125 286.77734375 C-86.56776244 284.49026031 -87.48349777 282.55051544 -88 280 C-86.125 276.625 -86.125 276.625 -84.64453125 274.95703125 C-82.63990339 272.57147648 -81.27877306 270.05948799 -79.8125 267.3125 C-79.07966797 265.94544922 -79.07966797 265.94544922 -78.33203125 264.55078125 C-77.19744048 262.37808983 -76.08582494 260.19738032 -75 258 C-74.34 258 -73.68 258 -73 258 C-72.67 256.02 -72.34 254.04 -72 252 C-71.34 252 -70.68 252 -70 252 C-69.896875 251.46375 -69.79375 250.9275 -69.6875 250.375 C-68.81907303 247.37497956 -67.44379704 244.7620465 -66 242 C-65.34 242 -64.68 242 -64 242 C-63.62488281 240.46859375 -63.62488281 240.46859375 -63.2421875 238.90625 C-62.12850579 235.01521443 -60.31898578 231.91102695 -58.125 228.5 C-55.97428838 225.13082438 -53.84388663 221.77069877 -51.87060547 218.29492188 C-51.25330566 217.20759766 -50.63600586 216.12027344 -50 215 C-51.1653125 215.00523682 -52.330625 215.01047363 -53.53125 215.01586914 C-77.71007756 215.11483967 -101.83922364 214.99045485 -126 214 C-126 212.68 -126 211.36 -126 210 C-125.34 210 -124.68 210 -124 210 C-123.731875 209.278125 -123.46375 208.55625 -123.1875 207.8125 C-122 205 -122 205 -120.5625 202.625 C-118.91141904 200.00449081 -118.91141904 200.00449081 -117.78125 196.96875 C-115.67557309 191.98055715 -112.77332443 187.47345064 -109.9375 182.875 C-108.85979819 181.12453546 -107.78546101 179.37199403 -106.71484375 177.6171875 C-106.24167725 176.85003418 -105.76851074 176.08288086 -105.28100586 175.29248047 C-103.95667668 172.92246885 -102.95343404 170.53931361 -102 168 C-101.34 168 -100.68 168 -100 168 C-99.67 166.35 -99.34 164.7 -99 163 C-98.34 163 -97.68 163 -97 163 C-96.773125 162.360625 -96.54625 161.72125 -96.3125 161.0625 C-94.51434174 156.86679739 -92.26095979 152.96099444 -90 149 C-89.01 149 -88.02 149 -87 149 C-86.86464844 147.96939453 -86.86464844 147.96939453 -86.7265625 146.91796875 C-85.83879564 143.35258248 -84.22312892 140.44851015 -82.375 137.3125 C-82.01672119 136.69310547 -81.65844238 136.07371094 -81.28930664 135.43554688 C-79.16927213 131.82179849 -76.91272643 128.38449329 -74.4375 125 C-70.85892113 120.06009387 -68.28622089 114.75901077 -65.640625 109.2890625 C-63.66658078 105.33157384 -61.41820545 101.69843187 -59 98 C-58.67 97.34 -58.34 96.68 -58 96 C-57.34 96 -56.68 96 -56 96 C-55.86271484 95.23429687 -55.86271484 95.23429687 -55.72265625 94.453125 C-54.70979202 91.01486157 -53.06779568 87.92665535 -51.4375 84.75 C-51.10814453 84.1003125 -50.77878906 83.450625 -50.43945312 82.78125 C-49.62992435 81.18565706 -48.81544958 79.59257517 -48 78 C-47.34 78 -46.68 78 -46 78 C-46 76.68 -46 75.36 -46 74 C-45.34 74 -44.68 74 -44 74 C-43.74734375 73.30261719 -43.4946875 72.60523438 -43.234375 71.88671875 C-41.84513283 68.63782646 -40.13014509 65.80397116 -38.25 62.8125 C-35.86245499 59.00088779 -33.50013402 55.18027095 -31.19140625 51.3203125 C-28.94549804 47.56542363 -26.67509099 43.8268217 -24.38671875 40.09765625 C-23.77892578 39.10572266 -23.17113281 38.11378906 -22.54492188 37.09179688 C-21.28911854 35.04368859 -20.03124958 32.99684565 -18.77148438 30.95117188 C-18.17013672 29.96826172 -17.56878906 28.98535156 -16.94921875 27.97265625 C-16.40612061 27.08843994 -15.86302246 26.20422363 -15.3034668 25.29321289 C-13.87858081 22.95886817 -13.87858081 22.95886817 -13 20 C-11.68799596 18.64567325 -10.35368596 17.31266518 -9 16 C-6.86539589 13.21974527 -6.86539589 13.21974527 -6.5 10.375 C-6.335 9.59125 -6.17 8.8075 -6 8 C-5.34 7.67 -4.68 7.34 -4 7 C-2.88365848 5.34948712 -2.88365848 5.34948712 -1.875 3.4375 C-1.25625 2.303125 -0.6375 1.16875 0 0 Z " fill="#94F1E8" transform="translate(478,104)"/>
<path d="M0 0 C99.33 0 198.66 0 301 0 C300.1552928 4.22353601 299.61658438 6.04543308 297.48828125 9.51171875 C296.97716797 10.35283203 296.46605469 11.19394531 295.93945312 12.06054688 C295.40255859 12.92744141 294.86566406 13.79433594 294.3125 14.6875 C293.79494141 15.53505859 293.27738281 16.38261719 292.74414062 17.25585938 C291.69659661 18.97132685 290.64629062 20.68511071 289.59326172 22.3972168 C287.48940556 25.83411696 285.42260098 29.29264737 283.35913086 32.75390625 C282.02255691 34.96272255 280.64575366 37.14070517 279.25 39.3125 C277.48155949 42.11584782 276.08269361 44.85034585 275 48 C274.34 48 273.68 48 273 48 C272.67 49.65 272.34 51.3 272 53 C271.02725128 53.01030746 270.05450256 53.02061493 269.05227661 53.03123474 C259.89939428 53.12885495 250.74658166 53.23157809 241.59381294 53.33933926 C236.88792415 53.39457941 232.18202915 53.44800116 227.47607422 53.49731445 C222.93731031 53.54494188 218.39862333 53.5972841 213.85995102 53.65294075 C212.12556745 53.67337166 210.39116278 53.69208351 208.6567421 53.70907402 C206.23348588 53.73310176 203.81037572 53.76315846 201.38720703 53.79467773 C200.66503998 53.8004332 199.94287292 53.80618866 199.19882202 53.81211853 C195.47454442 53.81623374 195.47454442 53.81623374 192 55 C189.52690044 55.06356422 187.08451524 55.06603814 184.61279297 55.02172852 C183.85172241 55.01212097 183.09065186 55.00251343 182.30651855 54.99261475 C179.78498232 54.95957148 177.26361648 54.91925954 174.7421875 54.87890625 C172.99627284 54.85461033 171.25035183 54.83076651 169.50442505 54.80735779 C164.90448795 54.74446425 160.3046629 54.67541256 155.70483398 54.60510254 C151.01291007 54.53446664 146.32090659 54.46962131 141.62890625 54.40429688 C132.41918339 54.27521663 123.20956847 54.13963426 114 54 C113.505 54.99 113.505 54.99 113 56 C112.67 55.01 112.34 54.02 112 53 C85.6 53.33 59.2 53.66 32 54 C32 54.66 32 55.32 32 56 C31.34 56 30.68 56 30 56 C29.7525 56.845625 29.505 57.69125 29.25 58.5625 C27.86026373 62.38427474 26.08879162 65.51868063 24 69 C23.34 69 22.68 69 22 69 C21.87399414 69.59079346 21.74798828 70.18158691 21.61816406 70.7902832 C20.64717343 74.26122956 18.63549888 77.14903636 16.75 80.1875 C15.92856776 81.53186854 15.10824974 82.87691855 14.2890625 84.22265625 C13.89364258 84.87121582 13.49822266 85.51977539 13.09082031 86.18798828 C11.30934839 89.14727312 9.64750042 92.16828371 7.9921875 95.19921875 C6.72258723 97.50349325 5.36343898 99.75032568 4 102 C3.505 102.99 3.505 102.99 3 104 C2.01 104 1.02 104 0 104 C0 69.68 0 35.36 0 0 Z " fill="#C2F8F3" transform="translate(0,0)"/>
<path d="M0 0 C2.54772268 1.27386134 2.81886088 2.38605496 4 4.9375 C5.18413003 7.48615488 5.98757159 8.98757159 8 11 C8 11.99 8 12.98 8 14 C8.66 14 9.32 14 10 14 C10.56267578 15.051875 10.56267578 15.051875 11.13671875 16.125 C13.89920675 21.24638834 16.72701764 26.27348163 19.85546875 31.1796875 C21.27438755 33.43639795 22.58668246 35.74956708 23.890625 38.07421875 C25.75959453 41.31859191 27.75291888 44.48886959 29.73046875 47.66796875 C30.90115457 49.81842855 31.54379001 51.60901994 32 54 C32.66 54 33.32 54 34 54 C34.89690912 55.55002751 35.7668197 57.11569918 36.625 58.6875 C37.11226563 59.55761719 37.59953125 60.42773438 38.1015625 61.32421875 C39 64 39 64 38.25 66.625 C37.8375 67.40875 37.425 68.1925 37 69 C36.46375 70.093125 35.9275 71.18625 35.375 72.3125 C34.694375 73.6428125 34.694375 73.6428125 34 75 C33.34 75 32.68 75 32 75 C31.88398438 75.55816406 31.76796875 76.11632812 31.6484375 76.69140625 C30.91498642 79.30266882 29.85402361 81.52042023 28.625 83.9375 C28.20476562 84.77152344 27.78453125 85.60554688 27.3515625 86.46484375 C26.90554688 87.30144531 26.45953125 88.13804687 26 89 C25.61261459 89.86459829 25.22522918 90.72919658 24.82610482 91.61999482 C23 94 23 94 20.08182889 94.62099248 C18.27454998 94.61814458 18.27454998 94.61814458 16.43076038 94.61523914 C15.42014155 94.62389298 15.42014155 94.62389298 14.38910618 94.63272163 C12.11465361 94.64603507 9.84194479 94.62346606 7.56758118 94.60127258 C5.92744204 94.60345152 4.28730458 94.60782677 2.64717644 94.61421841 C-1.87269155 94.6254364 -6.39197085 94.6053474 -10.91176379 94.58032811 C-15.78087744 94.55879619 -20.64995615 94.56603837 -25.519104 94.56983948 C-33.95947362 94.57246508 -42.39965043 94.55673761 -50.83997154 94.52865028 C-63.04332334 94.48806688 -75.24658162 94.47499835 -87.44999359 94.46871033 C-107.24772115 94.45775903 -127.04534588 94.42446219 -146.84301758 94.37719727 C-166.07803837 94.33132328 -185.31303127 94.29592079 -204.5480957 94.2746582 C-205.73314478 94.27334459 -206.91819385 94.27203097 -208.1391535 94.27067754 C-214.08401771 94.2641525 -220.02888212 94.25783393 -225.97374666 94.25161803 C-275.31590219 94.19975902 -324.65794609 94.11167102 -374 94 C-373.31936595 90.24694555 -372.362366 87.49432108 -370.4375 84.1875 C-369.98246094 83.39730469 -369.52742188 82.60710937 -369.05859375 81.79296875 C-368.70925781 81.20128906 -368.35992187 80.60960937 -368 80 C-367.34 80 -366.68 80 -366 80 C-365.79375 79.195625 -365.5875 78.39125 -365.375 77.5625 C-363.55023085 72.83468901 -360.72243248 66.36121624 -356 64 C-352.94512238 63.90599236 -349.91318356 63.87435917 -346.85816956 63.88647461 C-345.41932912 63.88625132 -345.41932912 63.88625132 -343.9514212 63.88602352 C-340.71702259 63.88672148 -337.48267983 63.8945794 -334.24829102 63.90234375 C-331.9376224 63.90426164 -329.62695336 63.90572605 -327.31628418 63.9067688 C-322.33057963 63.90993678 -317.34489188 63.91621582 -312.3591938 63.92483521 C-304.48205311 63.93831551 -296.60491808 63.94424283 -288.72776794 63.94897461 C-277.68886931 63.95616963 -266.64997722 63.96643322 -255.61108398 63.97949219 C-254.55976918 63.98073391 -254.55976918 63.98073391 -253.48721569 63.98200071 C-247.80056219 63.98874518 -242.11390891 63.99566972 -236.42725563 64.00260353 C-231.45793289 64.0086554 -226.48861007 64.01463596 -221.51928711 64.02050781 C-220.81956481 64.02133594 -220.1198425 64.02216407 -219.39891649 64.02301729 C-207.74050269 64.03669354 -196.08208895 64.04641666 -184.42366928 64.05341816 C-176.5867905 64.05841376 -168.74993733 64.06829326 -160.91306889 64.08184814 C-156.04440488 64.0892869 -151.17574443 64.09261925 -146.3070755 64.0948143 C-144.04268876 64.09669268 -141.77830272 64.10030616 -139.51392174 64.10574722 C-136.43220246 64.11292125 -133.35054024 64.11400286 -130.26881409 64.11352539 C-129.364544 64.11712035 -128.46027392 64.12071531 -127.52860171 64.12441921 C-126.29359514 64.12235769 -126.29359514 64.12235769 -125.03363895 64.12025452 C-123.96616258 64.12163721 -123.96616258 64.12163721 -122.87712103 64.12304783 C-120.77151832 64.06467068 -120.77151832 64.06467068 -118 63 C-118 63.66 -118 64.32 -118 65 C-108.00282239 65.24079169 -98.00840332 65.39403513 -88.00831032 65.43784332 C-83.36348906 65.46089374 -78.72297258 65.51322138 -74.07958984 65.63427734 C-69.59135149 65.75018146 -65.10860356 65.78679905 -60.61896896 65.7702179 C-58.91315188 65.77751225 -57.20720424 65.81261156 -55.50258255 65.87687683 C-47.53837603 66.20899327 -47.53837603 66.20899327 -40 64 C-35.80486482 60.07873543 -33.32170729 54.99768161 -30.90958786 49.86039734 C-29.74158906 47.47146719 -28.30220913 45.34223895 -26.75 43.1875 C-24.04224042 39.18670915 -21.77094256 35.00252484 -19.4921875 30.74609375 C-17.13616248 26.41026761 -14.57335361 22.20927127 -12 18 C-11.00226563 16.34677734 -11.00226563 16.34677734 -9.984375 14.66015625 C-9.28156393 13.50241354 -8.57844179 12.3448596 -7.875 11.1875 C-6.91207031 9.60001953 -6.91207031 9.60001953 -5.9296875 7.98046875 C-4.10445824 5.16133935 -2.14613246 2.58012813 0 0 Z " fill="#D4F4F2" transform="translate(390,386)"/>
<path d="M0 0 C49.83 0 99.66 0 151 0 C151.33 1.32 151.66 2.64 152 4 C150.6875 5.75 150.6875 5.75 149 7 C148.34 7 147.68 7 147 7 C147.33 7.99 147.66 8.98 148 10 C146.4045651 12.05727132 144.73473712 14.05874656 143 16 C142.67 16.66 142.34 17.32 142 18 C141.34 18 140.68 18 140 18 C139.92265625 18.67546875 139.8453125 19.3509375 139.765625 20.046875 C138.77116564 23.88264682 136.83688762 26.93057972 134.75 30.25 C133.92205939 31.59566713 133.09522879 32.94201787 132.26953125 34.2890625 C131.87330566 34.93262695 131.47708008 35.57619141 131.06884766 36.23925781 C129.79619069 38.33574069 128.60422864 40.46795531 127.4375 42.625 C124.19635049 48.55585344 120.60626792 54.28589358 117 60 C116.10474609 61.64935547 116.10474609 61.64935547 115.19140625 63.33203125 C113 66 113 66 109.8200531 66.65965271 C106.08376521 66.99253695 102.43830417 67.12021088 98.68774414 67.11352539 C97.99421844 67.11367142 97.30069275 67.11381744 96.58615112 67.1139679 C94.31911977 67.1132774 92.05217305 67.10552592 89.78515625 67.09765625 C88.20332382 67.095789 86.62149081 67.09436655 85.03965759 67.09336853 C80.89523699 67.08956755 76.75085195 67.07975814 72.60644531 67.06866455 C68.36979656 67.0583982 64.13314201 67.05385976 59.89648438 67.04882812 C51.59764001 67.03813351 43.29882444 67.02108643 35 67 C36.19333489 70.0322995 37.40009389 72.87765272 39.06640625 75.6796875 C39.46456543 76.35298096 39.86272461 77.02627441 40.27294922 77.7199707 C40.69850098 78.43113037 41.12405273 79.14229004 41.5625 79.875 C42.00867676 80.62676514 42.45485352 81.37853027 42.91455078 82.15307617 C44.27228388 84.43784808 45.63526876 86.71940262 47 89 C47.57161865 89.95688721 47.57161865 89.95688721 48.15478516 90.93310547 C49.95352045 93.94288653 51.75758828 96.94939332 53.56640625 99.953125 C55.4141718 103.02211045 57.25330215 106.09616 59.08984375 109.171875 C59.62367676 110.06479248 60.15750977 110.95770996 60.70751953 111.87768555 C61.75258676 113.62587603 62.79658734 115.37470474 63.83935547 117.12426758 C65.92963701 120.61726561 68.01874278 124.06812211 70.35546875 127.40234375 C72 130 72 130 72 133 C48.24 133.33 24.48 133.66 0 134 C0 89.78 0 45.56 0 0 Z " fill="#F0F0F0" transform="translate(0,252)"/>
<path d="M0 0 C0.66 0 1.32 0 2 0 C2 0.66 2 1.32 2 2 C2.73895508 1.99476318 3.47791016 1.98952637 4.23925781 1.98413086 C28.83879211 1.83650375 53.40968052 2.3607605 78 3 C76.38765674 7.17194928 74.38595029 10.96240674 72.125 14.8125 C69.23367856 19.7965003 66.49377178 24.80464213 64 30 C63.34 30 62.68 30 62 30 C61.896875 30.53625 61.79375 31.0725 61.6875 31.625 C60.81907303 34.62502044 59.44379704 37.2379535 58 40 C57.34 40 56.68 40 56 40 C55.67 41.98 55.34 43.96 55 46 C54.34 46 53.68 46 53 46 C52.76152344 46.83402344 52.52304687 47.66804688 52.27734375 48.52734375 C50.79752438 52.55046124 48.81519965 55.93416147 46.5625 59.5625 C46.16740234 60.20896484 45.77230469 60.85542969 45.36523438 61.52148438 C44.59439036 62.78228249 43.82126665 64.04169019 43.0456543 65.29956055 C42.16419402 66.73298825 41.29546129 68.17423118 40.4296875 69.6171875 C38.83142179 72.28096368 37.19784703 74.92132663 35.5625 77.5625 C32.05606904 83.24223536 28.61553679 88.96017694 25.1875 94.6875 C21.22458374 101.30155271 17.25525848 107.91148088 13.25 114.5 C12.83903076 115.18022217 12.42806152 115.86044434 12.00463867 116.5612793 C11.18913672 117.89902388 10.35340652 119.22467845 9.49647522 120.53627014 C7.91423927 123.03685046 7.91423927 123.03685046 6.60723877 126.01409912 C4.7196729 129.62861788 2.99145558 132.21044914 0 135 C-5.96044521 136.68557768 -11.69896286 136.40510209 -17.84375 136.171875 C-19.58103552 136.14946698 -21.31839737 136.13239792 -23.05578613 136.12042236 C-27.60840687 136.07480285 -32.15636408 135.95713333 -36.70715332 135.82397461 C-41.35881451 135.70076526 -46.0112367 135.64631745 -50.6640625 135.5859375 C-59.77808057 135.45759802 -68.8886512 135.25306114 -78 135 C-76.71350948 131.71335527 -75.35776991 128.75267463 -73.5 125.75 C-70.66707138 121.1067609 -67.88243324 116.43831658 -65.125 111.75 C-64.69324463 111.0163623 -64.26148926 110.28272461 -63.81665039 109.52685547 C-61.15558365 104.99532516 -58.53302508 100.44436751 -55.9375 95.875 C-53.17662943 91.01564515 -50.33504003 86.21636089 -47.4375 81.4375 C-43.38396899 74.74655301 -39.63336991 67.92793683 -36 61 C-35.34 61 -34.68 61 -34 61 C-33.84337891 59.92298828 -33.84337891 59.92298828 -33.68359375 58.82421875 C-32.92824737 55.70355913 -31.74801466 53.53652247 -30.0625 50.8125 C-29.53785156 49.95269531 -29.01320313 49.09289062 -28.47265625 48.20703125 C-27 46 -27 46 -25 44 C-22.97157537 41.09173402 -22.97157537 41.09173402 -21.5625 38.125 C-20.16063515 35.32127031 -18.63329774 32.67266903 -17 30 C-16.67 29.34 -16.34 28.68 -16 28 C-15.34 28 -14.68 28 -14 28 C-13.89300781 27.27554687 -13.78601563 26.55109375 -13.67578125 25.8046875 C-12.9451977 22.7725546 -11.84685429 20.75476148 -10.1875 18.125 C-9.65125 17.26003906 -9.115 16.39507812 -8.5625 15.50390625 C-8.046875 14.67761719 -7.53125 13.85132813 -7 13 C-5.05136228 9.72994232 -3.20983831 6.62951494 -2 3 C-3.27667038 3.02212303 -3.27667038 3.02212303 -4.57913208 3.04469299 C-12.61219631 3.18292153 -20.64532695 3.31587934 -28.67857552 3.4429636 C-32.80823278 3.50847859 -36.93783632 3.57600886 -41.06738281 3.64819336 C-45.05491421 3.71782047 -49.0424997 3.7820903 -53.03017807 3.84269524 C-54.54918409 3.86671337 -56.0681612 3.89263993 -57.58710098 3.92053413 C-59.71964251 3.959366 -61.85218722 3.9913225 -63.98486328 4.02172852 C-65.1973172 4.04171402 -66.40977112 4.06169952 -67.65896606 4.08229065 C-70.87237232 4.00314351 -73.84893298 3.61339885 -77 3 C-77 2.67 -77 2.34 -77 2 C-76.05008682 1.98969254 -75.10017365 1.97938507 -74.12147522 1.96876526 C-65.18902136 1.87119905 -56.25663978 1.76848134 -47.32430363 1.66066074 C-42.73160822 1.60539035 -38.1389065 1.55196391 -33.54614258 1.50268555 C-29.11760669 1.45510253 -24.68915071 1.40276219 -20.26070976 1.34705925 C-18.56736669 1.32660813 -16.87400169 1.3078997 -15.18062019 1.29092598 C-12.81702837 1.26694272 -10.45358896 1.23688034 -8.09008789 1.20532227 C-7.02949661 1.19668907 -7.02949661 1.19668907 -5.94747925 1.18788147 C-2.69225706 1.41161556 -2.69225706 1.41161556 0 0 Z " fill="#B9F0EB" transform="translate(350,316)"/>
<path d="M0 0 C26.07 0 52.14 0 79 0 C79.495 1.98 79.495 1.98 80 4 C78.6875 5.75 78.6875 5.75 77 7 C76.34 7 75.68 7 75 7 C75.495 8.485 75.495 8.485 76 10 C74.4045651 12.05727132 72.73473712 14.05874656 71 16 C70.67 16.66 70.34 17.32 70 18 C69.34 18 68.68 18 68 18 C67.92265625 18.67546875 67.8453125 19.3509375 67.765625 20.046875 C66.77116564 23.88264682 64.83688762 26.93057972 62.75 30.25 C61.92205939 31.59566713 61.09522879 32.94201787 60.26953125 34.2890625 C59.87330566 34.93262695 59.47708008 35.57619141 59.06884766 36.23925781 C57.79619069 38.33574069 56.60422864 40.46795531 55.4375 42.625 C52.19635049 48.55585344 48.60626792 54.28589358 45 60 C44.10474609 61.64935547 44.10474609 61.64935547 43.19140625 63.33203125 C41 66 41 66 37.82579041 66.66539001 C34.04700216 66.99588911 30.38805966 67.0817092 26.59594727 67.02172852 C25.892668 67.01212097 25.18938873 67.00251343 24.46479797 66.99261475 C22.16522255 66.95991839 19.86585505 66.91947679 17.56640625 66.87890625 C15.96216033 66.85457633 14.35790695 66.83073426 12.75364685 66.80735779 C8.54997187 66.74480239 4.34643062 66.67565634 0.1428833 66.60510254 C-4.15403196 66.53415978 -8.45104134 66.46949856 -12.74804688 66.40429688 C-21.16546888 66.27565298 -29.58275993 66.1400411 -38 66 C-36.79020318 62.26332021 -35.58608746 58.98780122 -33.50390625 55.65234375 C-33.02759766 54.88212891 -32.55128906 54.11191406 -32.06054688 53.31835938 C-31.56619141 52.53267578 -31.07183594 51.74699219 -30.5625 50.9375 C-29.58457866 49.36331651 -28.60671255 47.7890987 -27.62890625 46.21484375 C-27.17056396 45.48120605 -26.71222168 44.74756836 -26.23999023 43.99169922 C-24.19059324 40.69991331 -22.21346571 37.37949459 -20.3125 34 C-16.16128416 26.70343984 -11.64209233 19.61384897 -7.1875 12.5 C-4.62020436 8.39921904 -2.16620451 4.33240903 0 0 Z " fill="#E4E8E8" transform="translate(72,252)"/>
<path d="M0 0 C0.99 0.495 0.99 0.495 2 1 C1.67 1.66 1.34 2.32 1 3 C0.67 2.01 0.34 1.02 0 0 Z M1 3 C1.495 4.485 1.495 4.485 2 6 C1.11209553 7.43430723 0.20629505 8.86004317 -0.77734375 10.23046875 C-2.05422187 12.07847446 -3.1195898 13.96168008 -4.1875 15.9375 C-7.58480924 22.14492923 -11.27622491 28.17468111 -14.93505859 34.22998047 C-16.38790927 36.64473686 -17.8164685 39.07373867 -19.25 41.5 C-20.90674673 44.27493667 -22.62777391 46.91237873 -24.5625 49.5 C-27.07157097 52.90976311 -28.87733996 56.55855604 -30.69140625 60.375 C-32.32607661 63.65409994 -34.18216402 66.81878703 -36 70 C-62.4 70 -88.8 70 -116 70 C-116 69.34 -116 68.68 -116 68 C-115.34 68 -114.68 68 -114 68 C-113.9175 67.31679687 -113.835 66.63359375 -113.75 65.9296875 C-112.80421182 62.23520242 -111.0046504 59.32088018 -109 56.125 C-108.18468149 54.79700657 -107.36958399 53.46887744 -106.5546875 52.140625 C-106.13413086 51.46064453 -105.71357422 50.78066406 -105.28027344 50.08007812 C-103.19786415 46.69675869 -101.16334397 43.28497961 -99.125 39.875 C-98.39867093 38.66392247 -97.67212058 37.45297762 -96.9453125 36.2421875 C-95.72182881 34.20304802 -94.52487925 32.14751061 -93.3671875 30.0703125 C-92.91601562 29.38710937 -92.46484375 28.70390625 -92 28 C-91.34 28 -90.68 28 -90 28 C-89.8865625 27.27167969 -89.773125 26.54335937 -89.65625 25.79296875 C-88.97814458 22.90698439 -87.98946356 20.86277336 -86.5 18.3125 C-86.0565625 17.54550781 -85.613125 16.77851563 -85.15625 15.98828125 C-84.7746875 15.33214844 -84.393125 14.67601562 -84 14 C-83.67 13.34 -83.34 12.68 -83 12 C-82.34 12 -81.68 12 -81 12 C-80.814375 10.8553125 -80.814375 10.8553125 -80.625 9.6875 C-80 7 -80 7 -78 4 C-74.93911743 3.60127258 -74.93911743 3.60127258 -70.95166016 3.56762695 C-70.22627548 3.5574353 -69.50089081 3.54724365 -68.75352478 3.53674316 C-66.34862668 3.5064814 -63.94412645 3.49732446 -61.5390625 3.48828125 C-59.86997144 3.4714374 -58.20089309 3.45328756 -56.53182983 3.43388367 C-52.13081859 3.38626731 -47.72985874 3.35654284 -43.32867432 3.33044434 C-38.85703188 3.30076596 -34.38557067 3.25413624 -29.9140625 3.20898438 C-8.54163514 3 -8.54163514 3 1 3 Z " fill="#A5E6E1" transform="translate(348,182)"/>
<path d="M0 0 C27.06 0 54.12 0 82 0 C76.37956204 10.11678832 76.37956204 10.11678832 73.875 14.25 C73.39804687 15.03890625 72.92109375 15.8278125 72.4296875 16.640625 C71.95789063 17.41921875 71.48609375 18.1978125 71 19 C70.47792969 19.89332031 69.95585937 20.78664063 69.41796875 21.70703125 C68 24 68 24 66.4375 25.4375 C64.39680918 27.65564219 63.92837496 30.15685169 63 33 C62.04701223 34.36733028 61.04625409 35.70264493 60 37 C58.9935725 38.66279327 57.99414593 40.32983484 57 42 C55.7295036 44.04049422 54.40568804 46.05017465 53 48 C52.34 48 51.68 48 51 48 C50.855625 48.61875 50.71125 49.2375 50.5625 49.875 C50 52 50 52 49 54 C23.26 54 -2.48 54 -29 54 C-28.505 51.03 -28.505 51.03 -28 48 C-27.01 47.505 -27.01 47.505 -26 47 C-25.29299152 45.08097697 -24.58889318 43.16081219 -23.90234375 41.234375 C-22.40358812 37.52317058 -20.20332208 34.32599573 -18 31 C-13.72602511 24.419609 -9.61814049 17.75372448 -5.625 11 C-5.18389893 10.25758057 -4.74279785 9.51516113 -4.28833008 8.75024414 C-3.87607178 8.04891357 -3.46381348 7.34758301 -3.0390625 6.625 C-2.66990723 5.99851562 -2.30075195 5.37203125 -1.92041016 4.7265625 C-0.85518736 2.844273 -0.85518736 2.844273 0 0 Z " fill="#81E9DD" transform="translate(301,0)"/>
<path d="M0 0 C0 31.35 0 62.7 0 95 C-22.11 95 -44.22 95 -67 95 C-61.375 81.5 -61.375 81.5 -58 76 C-57.34 76 -56.68 76 -56 76 C-55.896875 75.443125 -55.79375 74.88625 -55.6875 74.3125 C-54.86913147 71.55980585 -53.47401082 69.4566847 -52 67 C-51.30420546 64.80869466 -51.30420546 64.80869466 -51 63 C-50.01 63 -49.02 63 -48 63 C-47.91621094 62.31550781 -47.83242188 61.63101563 -47.74609375 60.92578125 C-46.81184583 57.26215981 -45.05583549 54.35214059 -43.0625 51.1875 C-42.70220703 50.59001953 -42.34191406 49.99253906 -41.97070312 49.37695312 C-41.04093616 47.87870985 -40.02648071 46.43371436 -39 45 C-38.34 45 -37.68 45 -37 45 C-36.90589844 44.46890625 -36.81179688 43.9378125 -36.71484375 43.390625 C-35.76554381 40.21591699 -34.22551277 37.61273301 -32.5625 34.75 C-31.94503906 33.67234375 -31.32757813 32.5946875 -30.69140625 31.484375 C-30.13324219 30.66453125 -29.57507813 29.8446875 -29 29 C-28.34 29 -27.68 29 -27 29 C-27 27.68 -27 26.36 -27 25 C-26.34 25 -25.68 25 -25 25 C-24.72019287 24.27530518 -24.44038574 23.55061035 -24.15209961 22.80395508 C-22.27974534 18.24705981 -19.95025685 13.99154579 -17.5625 9.6875 C-17.09134766 8.75615234 -16.62019531 7.82480469 -16.13476562 6.86523438 C-15.63783203 5.98544922 -15.14089844 5.10566406 -14.62890625 4.19921875 C-14.19650635 3.39315186 -13.76410645 2.58708496 -13.31860352 1.7565918 C-11 0 -11 0 0 0 Z " fill="#A7F2EB" transform="translate(480,385)"/>
<path d="M0 0 C23.76 0 47.52 0 72 0 C66 11 66 11 63 16 C62.34 16 61.68 16 61 16 C60.89558594 16.5465625 60.79117188 17.093125 60.68359375 17.65625 C59.84407207 20.53461006 58.53047453 22.88707713 57.0625 25.5 C55.30771629 28.63877775 53.57782132 31.7681341 52 35 C51.34 35 50.68 35 50 35 C49.81824219 35.63808594 49.63648438 36.27617187 49.44921875 36.93359375 C49.07216797 38.17302734 49.07216797 38.17302734 48.6875 39.4375 C48.44386719 40.26121094 48.20023438 41.08492187 47.94921875 41.93359375 C47.63597656 42.61550781 47.32273438 43.29742187 47 44 C46.01 44.33 45.02 44.66 44 45 C43.938125 45.66 43.87625 46.32 43.8125 47 C42.85967583 50.51812 41.25456705 52.98048572 39.265625 56.00390625 C37.83658243 58.17233221 37.83658243 58.17233221 36.375 61.375 C35 64 35 64 32 66 C16.16 66.495 16.16 66.495 0 67 C0 44.89 0 22.78 0 0 Z " fill="#F2F8F8" transform="translate(0,120)"/>
<path d="M0 0 C1.11492828 -0.01467567 1.11492828 -0.01467567 2.25238037 -0.02964783 C4.71730758 -0.05961327 7.18218051 -0.08098996 9.6472168 -0.09985352 C10.9093654 -0.10971126 10.9093654 -0.10971126 12.19701195 -0.11976814 C16.65069269 -0.15236643 21.10434944 -0.17681638 25.55810547 -0.19628906 C29.24530807 -0.21410753 32.93174664 -0.24893445 36.61865234 -0.29882812 C41.06901271 -0.3589854 45.51866424 -0.38975833 49.96941185 -0.39946175 C51.66513501 -0.40802522 53.36083878 -0.42686555 55.05632973 -0.45620537 C57.43162297 -0.49509636 59.80415179 -0.49615943 62.1796875 -0.48828125 C63.2280201 -0.51828217 63.2280201 -0.51828217 64.29753113 -0.54888916 C67.06489145 -0.50773938 69.17544984 -0.31271169 71.31900597 1.52424431 C75.75809693 6.77819434 78.85372911 12.61386825 80.78393555 19.20874023 C81.44393555 19.20874023 82.10393555 19.20874023 82.78393555 19.20874023 C83.62242359 20.66411591 84.45457489 22.12314397 85.28393555 23.58374023 C85.9800293 24.8019043 85.9800293 24.8019043 86.69018555 26.04467773 C87.78393555 28.20874023 87.78393555 28.20874023 87.78393555 30.20874023 C50.49393555 30.20874023 13.20393555 30.20874023 -25.21606445 30.20874023 C-24.37791307 26.01798333 -23.70936596 23.9280018 -21.65356445 20.39624023 C-21.19852539 19.60604492 -20.74348633 18.81584961 -20.2746582 18.00170898 C-19.92532227 17.4100293 -19.57598633 16.81834961 -19.21606445 16.20874023 C-18.55606445 16.20874023 -17.89606445 16.20874023 -17.21606445 16.20874023 C-17.00981445 15.40436523 -16.80356445 14.59999023 -16.59106445 13.77124023 C-13.06771841 4.64257094 -9.85424063 0.08150807 0 0 Z " fill="#FEFEFE" transform="translate(41.216064453125,449.791259765625)"/>
<path d="M0 0 C3.52615678 1.17538559 3.7396912 1.77800695 5.48828125 4.90234375 C5.94485107 5.70615479 6.4014209 6.50996582 6.87182617 7.33813477 C7.34724854 8.19592529 7.8226709 9.05371582 8.3125 9.9375 C9.29358713 11.67486543 10.27535238 13.41184811 11.2578125 15.1484375 C11.72864258 15.98600586 12.19947266 16.82357422 12.68457031 17.68652344 C14.72484697 21.2748051 16.88955886 24.78354645 19.07421875 28.28515625 C20 30 20 30 20 32 C20.66 32 21.32 32 22 32 C22.84114171 33.43294498 23.67265687 34.87154405 24.5 36.3125 C24.9640625 37.11300781 25.428125 37.91351563 25.90625 38.73828125 C27 41 27 41 27 44 C27.66 44 28.32 44 29 44 C30.45951119 46.58267413 31.91764881 49.16610741 33.375 51.75 C33.7875 52.47960937 34.2 53.20921875 34.625 53.9609375 C35.22441406 55.02441406 35.22441406 55.02441406 35.8359375 56.109375 C36.20251465 56.75874023 36.5690918 57.40810547 36.94677734 58.07714844 C38.01381867 60.02522853 39.00666287 62.01332574 40 64 C14.59 64 -10.82 64 -37 64 C-37 62.68 -37 61.36 -37 60 C-36.34 60 -35.68 60 -35 60 C-34.731875 59.278125 -34.46375 58.55625 -34.1875 57.8125 C-33 55 -33 55 -31.5625 52.625 C-29.91141904 50.00449081 -29.91141904 50.00449081 -28.78125 46.96875 C-26.67557309 41.98055715 -23.77332443 37.47345064 -20.9375 32.875 C-19.85979819 31.12453546 -18.78546101 29.37199403 -17.71484375 27.6171875 C-17.00509399 26.46645752 -17.00509399 26.46645752 -16.28100586 25.29248047 C-14.95667668 22.92246885 -13.95343404 20.53931361 -13 18 C-12.34 18 -11.68 18 -11 18 C-10.67 16.35 -10.34 14.7 -10 13 C-9.34 13 -8.68 13 -8 13 C-7.7525 12.29875 -7.505 11.5975 -7.25 10.875 C-5.82819762 7.60485452 -4.12753712 4.858878 -2 2 C-1.34 2 -0.68 2 0 2 C0 1.34 0 0.68 0 0 Z " fill="#96E5DE" transform="translate(389,254)"/>
<path d="M0 0 C2.13937401 2.01001651 3.70138209 3.94324881 5.1640625 6.484375 C5.55899902 7.16411377 5.95393555 7.84385254 6.36083984 8.54418945 C6.7780127 9.27210693 7.19518555 10.00002441 7.625 10.75 C8.52547512 12.30111029 9.42652716 13.85188578 10.328125 15.40234375 C10.77865234 16.1794873 11.22917969 16.95663086 11.69335938 17.75732422 C13.55902799 20.95949759 15.46270305 24.13801712 17.375 27.3125 C18.10677213 28.52864505 18.83854293 29.74479091 19.5703125 30.9609375 C19.95348633 31.59741211 20.33666016 32.23388672 20.73144531 32.88964844 C22.17544957 35.29187569 23.61527002 37.69658413 25.0546875 40.1015625 C25.58400879 40.98545654 26.11333008 41.86935059 26.65869141 42.7800293 C27.69013807 44.50253573 28.72109332 46.22533655 29.75146484 47.94848633 C32.465917 52.47850799 35.22654394 56.96500308 38.10839844 61.39086914 C39 63 39 63 39 65 C13.59 65 -11.82 65 -38 65 C-35.75 58.25 -35.75 58.25 -34.0546875 55.3515625 C-33.70019531 54.73925781 -33.34570312 54.12695312 -32.98046875 53.49609375 C-32.61566406 52.87863281 -32.25085938 52.26117188 -31.875 51.625 C-31.50246094 50.98433594 -31.12992188 50.34367187 -30.74609375 49.68359375 C-29.83565998 48.11951523 -28.91851809 46.55934466 -28 45 C-27.34 45 -26.68 45 -26 45 C-25.79375 44.21625 -25.5875 43.4325 -25.375 42.625 C-23.87368153 38.66697858 -21.884368 35.39998869 -19.6640625 31.8125 C-16.82827392 27.01961789 -14.4270703 22.00905999 -12 17 C-11.34 17 -10.68 17 -10 17 C-9.74347656 16.29359375 -9.48695313 15.5871875 -9.22265625 14.859375 C-7.8948784 11.75415651 -6.27173256 9.08367869 -4.4375 6.25 C-3.50744141 4.80367188 -3.50744141 4.80367188 -2.55859375 3.328125 C-1 1 -1 1 0 0 Z " fill="#D4E5E4" transform="translate(191,319)"/>
<path d="M0 0 C0.66 0 1.32 0 2 0 C2 27.06 2 54.12 2 82 C-14.17 82 -30.34 82 -47 82 C-46.67 79.36 -46.34 76.72 -46 74 C-45.34 74 -44.68 74 -44 74 C-43.74734375 73.30261719 -43.4946875 72.60523438 -43.234375 71.88671875 C-41.84513283 68.63782646 -40.13014509 65.80397116 -38.25 62.8125 C-35.86245499 59.00088779 -33.50013402 55.18027095 -31.19140625 51.3203125 C-28.94549804 47.56542363 -26.67509099 43.8268217 -24.38671875 40.09765625 C-23.77892578 39.10572266 -23.17113281 38.11378906 -22.54492188 37.09179688 C-21.28911854 35.04368859 -20.03124958 32.99684565 -18.77148438 30.95117188 C-18.17013672 29.96826172 -17.56878906 28.98535156 -16.94921875 27.97265625 C-16.40612061 27.08843994 -15.86302246 26.20422363 -15.3034668 25.29321289 C-13.87858081 22.95886817 -13.87858081 22.95886817 -13 20 C-11.68799596 18.64567325 -10.35368596 17.31266518 -9 16 C-6.86539589 13.21974527 -6.86539589 13.21974527 -6.5 10.375 C-6.335 9.59125 -6.17 8.8075 -6 8 C-5.34 7.67 -4.68 7.34 -4 7 C-2.88365848 5.34948712 -2.88365848 5.34948712 -1.875 3.4375 C-1.25625 2.303125 -0.6375 1.16875 0 0 Z " fill="#88FDF2" transform="translate(478,104)"/>
<path d="M0 0 C21.78 0 43.56 0 66 0 C63.69 3.63 61.38 7.26 59 11 C56.75711063 15.15859072 56.75711063 15.15859072 54.52734375 19.32421875 C53.01359579 21.97618129 51.35460776 24.40436592 49.5625 26.875 C44.92671157 33.30561802 41.43147555 40.33125621 37.77734375 47.34765625 C35.3230384 51.89232053 35.3230384 51.89232053 32 53 C31.34 52.34 30.68 51.68 30 51 C30 50.01 30 49.02 30 48 C29.34 48 28.68 48 28 48 C27.505 45.525 27.505 45.525 27 43 C26.34 43 25.68 43 25 43 C24.74347656 42.44054688 24.48695313 41.88109375 24.22265625 41.3046875 C21.26075906 35.10165702 17.80133164 29.41299977 13.94750977 23.73583984 C11 19.31426355 11 19.31426355 11 16 C10.34 16 9.68 16 9 16 C6 10.25 6 10.25 6 8 C5.34 8 4.68 8 4 8 C3.67 6.35 3.34 4.7 3 3 C2.34 3 1.68 3 1 3 C0.67 2.01 0.34 1.02 0 0 Z " fill="#64E6D9" transform="translate(397,0)"/>
<path d="M0 0 C0.66 0 1.32 0 2 0 C2 5.28 2 10.56 2 16 C0.618125 16.020625 -0.76375 16.04125 -2.1875 16.0625 C-5.128034 16.35933624 -6.54666337 16.5694337 -8.7109375 18.625 C-10.24544054 20.75889119 -10.24544054 20.75889119 -12 24 C-12.66 23.67 -13.32 23.34 -14 23 C-12.87327121 19.61981362 -11.51913637 18.4427989 -9 16 C-6.86539589 13.21974527 -6.86539589 13.21974527 -6.5 10.375 C-6.2525 9.199375 -6.2525 9.199375 -6 8 C-5.34 7.67 -4.68 7.34 -4 7 C-2.88365848 5.34948712 -2.88365848 5.34948712 -1.875 3.4375 C-1.25625 2.303125 -0.6375 1.16875 0 0 Z " fill="#72FBEE" transform="translate(478,104)"/>
<path d="M0 0 C0.66 0 1.32 0 2 0 C1.75 2.375 1.75 2.375 1 5 C-1.0625 6.3125 -1.0625 6.3125 -3 7 C-1.125 2.25 -1.125 2.25 0 0 Z " fill="#B8E5E0" transform="translate(310,385)"/>
</svg>
