<?xml version="1.0" encoding="UTF-8"?>
<svg version="1.1" xmlns="http://www.w3.org/2000/svg" width="200" height="200">
<path d="M0 0 C66 0 132 0 200 0 C200 66 200 132 200 200 C134 200 68 200 0 200 C0 134 0 68 0 0 Z " fill="#FEFEFD" transform="translate(0,0)"/>
<path d="M0 0 C2.5 1.5625 2.5 1.5625 4 4 C4.70627571 7.85241295 5.09412766 10.34868662 2.89160156 13.67285156 C-3.48383034 20.67746413 -10.21851361 27.32741182 -16.9375 34 C-18.20661373 35.2640885 -19.47549589 36.52840956 -20.74414062 37.79296875 C-23.8267632 40.86466724 -26.91250428 43.93320008 -30 47 C-28.50465092 50.56035495 -26.47279984 52.66199744 -23.6484375 55.265625 C-22.79765625 56.07386719 -21.946875 56.88210937 -21.0703125 57.71484375 C-19.27704869 59.4015513 -17.47232288 61.07615708 -15.65625 62.73828125 C-8.41258406 69.68471469 -8.41258406 69.68471469 -8.2890625 74.421875 C-9 78 -9 78 -11 81 C-14.08482162 83.05654775 -16.18870342 83.86729922 -19.92480469 83.59741211 C-27.79482981 81.33177076 -34.65365051 71.50022531 -40.37524414 65.75512695 C-41.95539644 64.16954204 -43.54091976 62.58946558 -45.12695312 61.00976562 C-46.13573806 60.00032108 -47.14421338 58.99056701 -48.15234375 57.98046875 C-49.05976318 57.07192139 -49.96718262 56.16337402 -50.90209961 55.22729492 C-53.21701839 52.76959632 -53.87390742 51.66198604 -54.5 48.375 C-53.32153854 40.42038514 -43.80458337 33.65722349 -38.29296875 28.16015625 C-37.08306023 26.94881264 -37.08306023 26.94881264 -35.84870911 25.71299744 C-34.15826114 24.02187355 -32.46656805 22.33199344 -30.77368164 20.64331055 C-28.1741252 18.04915298 -25.58000325 15.44964575 -22.98632812 12.84960938 C-21.33886258 11.20280389 -19.69108726 9.55630824 -18.04296875 7.91015625 C-17.26592087 7.13108414 -16.48887299 6.35201202 -15.6882782 5.54933167 C-14.61124382 4.47702553 -14.61124382 4.47702553 -13.51245117 3.38305664 C-12.8807048 2.75210587 -12.24895844 2.12115509 -11.59806824 1.47108459 C-8.03215904 -1.81147491 -4.44153541 -1.10599498 0 0 Z " fill="#6BCF29" transform="translate(105,56)"/>
<path d="M0 0 C7.87002512 2.26564135 14.72884583 12.0971868 20.45043945 17.84228516 C22.03059175 19.42787007 23.61611507 21.00794653 25.20214844 22.58764648 C26.21093337 23.59709103 27.21940869 24.6068451 28.22753906 25.61694336 C29.1349585 26.52549072 30.04237793 27.43403809 30.97729492 28.37011719 C33.29221371 30.82781579 33.94910273 31.93542607 34.57519531 35.22241211 C34.0307957 38.89710951 33.49550321 39.59449113 31.08862305 42.23999023 C30.45052704 42.94341553 29.81243103 43.64684082 29.15499878 44.37158203 C23.12270659 50.82741192 16.95500194 57.14541719 10.7512207 63.4362793 C9.00257121 65.21678182 7.26203416 67.00528657 5.52954102 68.80151367 C3.01296159 71.40911679 0.47130458 73.98974769 -2.07714844 76.56616211 C-2.84510239 77.37226929 -3.61305634 78.17837646 -4.40428162 79.00891113 C-10.49852646 85.08148012 -10.49852646 85.08148012 -15.2902832 85.25952148 C-18.92480469 84.59741211 -18.92480469 84.59741211 -21.92480469 82.03491211 C-24.31297538 77.93024374 -24.88895776 76.25748531 -23.92480469 71.59741211 C-18.28429759 63.43999089 -10.00678392 56.56841807 -2.98730469 49.59741211 C-1.71819095 48.3333236 -0.4493088 47.06900255 0.81933594 45.80444336 C3.90195851 42.73274487 6.98769959 39.66421203 10.07519531 36.59741211 C8.5954832 33.14847367 6.6516 30.95258757 3.97753906 28.33959961 C3.17638672 27.5494043 2.37523438 26.75920898 1.54980469 25.94506836 C0.71255859 25.1290918 -0.1246875 24.31311523 -0.98730469 23.47241211 C-2.64703091 21.84702505 -4.30469216 20.21952584 -5.95996094 18.58959961 C-6.69609619 17.87143066 -7.43223145 17.15326172 -8.19067383 16.41333008 C-10.59977991 13.89060292 -10.89911701 12.82431994 -11.29980469 9.28491211 C-10.92480469 5.59741211 -10.92480469 5.59741211 -8.92480469 2.65991211 C-5.83633047 0.53658609 -3.7755831 -0.27273919 0 0 Z " fill="#6ACF29" transform="translate(114.9248046875,94.402587890625)"/>
<path d="M0 0 C2.41003178 2.41003178 3.48200366 4.96400731 5 8 C7.1385485 10.1385485 8.13275314 10.42655063 11 11 C11 11.66 11 12.32 11 13 C9.88625 13.37125 8.7725 13.7425 7.625 14.125 C4.38621238 15.4794021 4.10727559 15.76212803 2.5625 19.1875 C2.376875 20.115625 2.19125 21.04375 2 22 C1.34 22 0.68 22 0 22 C-0.45375 21.05125 -0.9075 20.1025 -1.375 19.125 C-2.80238254 15.99686321 -2.80238254 15.99686321 -5 14 C-7.06874034 13.3574765 -7.06874034 13.3574765 -9 13 C-9 12.34 -9 11.68 -9 11 C-6.69 10.34 -4.38 9.68 -2 9 C-1.34 6.03 -0.68 3.06 0 0 Z " fill="#7DCC48" transform="translate(122,32)"/>
<path d="M0 0 C0.33 0.66 0.66 1.32 1 2 C-0.25 4.5625 -0.25 4.5625 -2 7 C-2.99 7.33 -3.98 7.66 -5 8 C-5.33 8.66 -5.66 9.32 -6 10 C-7.60407328 10.02708567 -9.2082785 10.04643483 -10.8125 10.0625 C-12.15248047 10.07990234 -12.15248047 10.07990234 -13.51953125 10.09765625 C-16 10 -16 10 -19 9 C-19.33 6.69 -19.66 4.38 -20 2 C-19.34 2.825 -18.68 3.65 -18 4.5 C-14.8962747 7.08643775 -13.12782037 7.85661401 -9.0703125 7.640625 C-5.06201274 6.40032092 -2.58456928 3.16609737 0 0 Z " fill="#EDFCDF" transform="translate(111,171)"/>
<path d="M0 0 C0.33 2.31 0.66 4.62 1 7 C0.21625 7.12375 -0.5675 7.2475 -1.375 7.375 C-4.14057822 7.79117993 -4.14057822 7.79117993 -6 10 C-6.66 10.66 -7.32 11.32 -8 12 C-10.125 11.625 -10.125 11.625 -12 11 C-10.19047409 9.16364422 -8.37759362 7.33083792 -6.5625 5.5 C-6.04623047 4.97535156 -5.52996094 4.45070312 -4.99804688 3.91015625 C-1.11328125 0 -1.11328125 0 0 0 Z " fill="#75CD3A" transform="translate(108,149)"/>
<path d="M0 0 C0 3.77622631 -1.05213827 4.5913843 -3.4375 7.4375 C-5.81282727 10.2734968 -7.40315561 12.30965231 -8 16 C-8.99 15.01 -9.98 14.02 -11 13 C-9.46356148 9.31930113 -7.21849055 7.01224796 -4.375 4.25 C-3.55773437 3.45078125 -2.74046875 2.6515625 -1.8984375 1.828125 C-0.95871094 0.92320313 -0.95871094 0.92320313 0 0 Z " fill="#E7FDD9" transform="translate(85,92)"/>
<path d="M0 0 C1.65 1.65 3.3 3.3 5 5 C3.68 7.97 2.36 10.94 1 14 C0.67 14 0.34 14 0 14 C-0.103125 13.071875 -0.20625 12.14375 -0.3125 11.1875 C-1.0070192 7.96745642 -1.47740939 6.97420135 -4 5 C-3.01 4.34 -2.02 3.68 -1 3 C-0.67 2.01 -0.34 1.02 0 0 Z " fill="#89CB5B" transform="translate(108,24)"/>
<path d="M0 0 C0.99 0.33 1.98 0.66 3 1 C-3.31197157 8.52064698 -3.31197157 8.52064698 -7.2421875 9.63671875 C-9.375 9.6875 -9.375 9.6875 -13 9 C-13.66 8.01 -14.32 7.02 -15 6 C-11.37 6 -7.74 6 -4 6 C-4 5.34 -4 4.68 -4 4 C-3.34 4 -2.68 4 -2 4 C-1.34 2.68 -0.68 1.36 0 0 Z " fill="#7DC84B" transform="translate(109,170)"/>
<path d="M0 0 C1.39692939 0.08825916 2.79260452 0.19644834 4.1875 0.3125 C5.35345703 0.39951172 5.35345703 0.39951172 6.54296875 0.48828125 C9.48335425 1.10066678 11.51134186 2.35120873 14 4 C13.94008594 5.95918968 13.85132862 7.91751529 13.75 9.875 C13.68039063 11.51082031 13.68039063 11.51082031 13.609375 13.1796875 C13 16 13 16 10.953125 17.3828125 C10.30859375 17.58648437 9.6640625 17.79015625 9 18 C9.33 17.505 9.66 17.01 10 16.5 C11.48667975 12.78330061 11.31792098 10.0058044 11 6 C9.71860238 3.59737946 8.57586776 3.17832591 6.01953125 2.38671875 C4.02680753 1.86825789 2.01384079 1.42917918 0 1 C0 0.67 0 0.34 0 0 Z " fill="#E6FCD9" transform="translate(97,54)"/>
<path d="M0 0 C4.91935902 4.11619836 9.52647956 8.40410362 14 13 C13.01 13.495 13.01 13.495 12 14 C11.01 13.67 10.02 13.34 9 13 C8.67 12.01 8.34 11.02 8 10 C7.01 9.67 6.02 9.34 5 9 C5 8.01 5 7.02 5 6 C3.68 5.67 2.36 5.34 1 5 C0.67 3.35 0.34 1.7 0 0 Z " fill="#DAF6C3" transform="translate(107,111)"/>
<path d="M0 0 C3.465 1.98 3.465 1.98 7 4 C6.01 4.33 5.02 4.66 4 5 C3.67 5.99 3.34 6.98 3 8 C1.68 8 0.36 8 -1 8 C-1.625 5.125 -1.625 5.125 -2 2 C-1.34 1.34 -0.68 0.68 0 0 Z " fill="#6BCE28" transform="translate(123,40)"/>
<path d="M0 0 C1.32 0 2.64 0 4 0 C2.55746343 3.36591866 0.66735273 5.51047079 -2 8 C-1.34 8.66 -0.68 9.32 0 10 C-2.97 9.505 -2.97 9.505 -6 9 C-5.67 7.35 -5.34 5.7 -5 4 C-3.35 4 -1.7 4 0 4 C0 2.68 0 1.36 0 0 Z " fill="#E8F8DA" transform="translate(107,22)"/>
<path d="M0 0 C2.5 1.5 2.5 1.5 5 4 C5.69045108 6.78462913 5.64626976 9.2090297 5 12 C3 14.5 3 14.5 1 16 C1 14.02 1 12.04 1 10 C1.99 10.33 2.98 10.66 4 11 C3.65555119 8.52733235 3.65555119 8.52733235 3 6 C2.34 5.67 1.68 5.34 1 5 C0.375 2.4375 0.375 2.4375 0 0 Z " fill="#7FCD4E" transform="translate(91,122)"/>
<path d="M0 0 C1.65 0.33 3.3 0.66 5 1 C4.04578192 2.14926266 3.08647955 3.29430541 2.125 4.4375 C1.59132813 5.07558594 1.05765625 5.71367188 0.5078125 6.37109375 C-1 8 -1 8 -3 9 C-3 7.35 -3 5.7 -3 4 C-2.01 4 -1.02 4 0 4 C0 2.68 0 1.36 0 0 Z " fill="#70CB3B" transform="translate(99,72)"/>
<path d="M0 0 C1.65 0 3.3 0 5 0 C5.33 3.3 5.66 6.6 6 10 C4.35 10.33 2.7 10.66 1 11 C1.99 9.68 2.98 8.36 4 7 C2.79618552 4.50638429 1.54571278 2.31856917 0 0 Z " fill="#75CA3D" transform="translate(121,124)"/>
<path d="M0 0 C0 4.1041911 -1.45843064 5.84021107 -4 9 C-6.75 9.875 -6.75 9.875 -9 10 C-8.06409496 8.8944811 -7.12620142 7.79064547 -6.1875 6.6875 C-5.66542969 6.07261719 -5.14335938 5.45773438 -4.60546875 4.82421875 C-3.12827531 3.14575321 -1.59960869 1.56117966 0 0 Z " fill="#74C93D" transform="translate(63,88)"/>
<path d="M0 0 C0.99 0.33 1.98 0.66 3 1 C0.36 3.64 -2.28 6.28 -5 9 C-6.09658936 5.71023192 -5.79953138 4.28696233 -5 1 C-4.34 1 -3.68 1 -3 1 C-3 1.66 -3 2.32 -3 3 C-2.34 3 -1.68 3 -1 3 C-0.67 2.01 -0.34 1.02 0 0 Z " fill="#E8FDDA" transform="translate(61,87)"/>
<path d="M0 0 C0.99 0.33 1.98 0.66 3 1 C0.36 3.64 -2.28 6.28 -5 9 C-6.09658936 5.71023192 -5.79953138 4.28696233 -5 1 C-4.34 1 -3.68 1 -3 1 C-3 1.66 -3 2.32 -3 3 C-2.34 3 -1.68 3 -1 3 C-0.67 2.01 -0.34 1.02 0 0 Z " fill="#E8FDDA" transform="translate(77,71)"/>
<path d="M0 0 C1.3609623 2.7219246 0.70366248 4.1831957 0.0625 7.125 C-0.13214844 8.03507812 -0.32679687 8.94515625 -0.52734375 9.8828125 C-0.68332031 10.58148438 -0.83929688 11.28015625 -1 12 C-1.99 12.33 -2.98 12.66 -4 13 C-4 11.02 -4 9.04 -4 7 C-3.34 7 -2.68 7 -2 7 C-1.855625 6.030625 -1.71125 5.06125 -1.5625 4.0625 C-1 1 -1 1 0 0 Z " fill="#D5F3C3" transform="translate(126,47)"/>
<path d="M0 0 C2.3072608 2.07408018 2.94747092 2.6979578 3.5 5.875 C2.84622973 9.96106416 1.09161442 11.37212774 -2 14 C-1.67257813 13.44828125 -1.34515625 12.8965625 -1.0078125 12.328125 C0.16787715 9.61219077 0.20248638 7.69448241 0.125 4.75 C0.10695312 3.85796875 0.08890625 2.9659375 0.0703125 2.046875 C0.04710937 1.37140625 0.02390625 0.6959375 0 0 Z " fill="#89CB58" transform="translate(146,124)"/>
<path d="M0 0 C1.32 0.33 2.64 0.66 4 1 C0.04 4.465 0.04 4.465 -4 8 C-5.04449911 4.86650268 -4.93423645 4.01031744 -4 1 C-2.02 1.495 -2.02 1.495 0 2 C0 1.34 0 0.68 0 0 Z " fill="#EBFDDC" transform="translate(93,55)"/>
<path d="M0 0 C0.66 0.99 1.32 1.98 2 3 C-0.52956528 6.0916909 -3.22454612 6.90931332 -7 8 C-6.02133662 6.85373678 -5.04205413 5.70800212 -4.0625 4.5625 C-3.51722656 3.92441406 -2.97195312 3.28632813 -2.41015625 2.62890625 C-1.63204305 1.73008851 -0.84063472 0.84063472 0 0 Z " fill="#E2F8CE" transform="translate(119,163)"/>
<path d="M0 0 C0.66 0.99 1.32 1.98 2 3 C-0.52956528 6.0916909 -3.22454612 6.90931332 -7 8 C-6.02133662 6.85373678 -5.04205413 5.70800212 -4.0625 4.5625 C-3.51722656 3.92441406 -2.97195312 3.28632813 -2.41015625 2.62890625 C-1.63204305 1.73008851 -0.84063472 0.84063472 0 0 Z " fill="#E2F8CE" transform="translate(135,147)"/>
<path d="M0 0 C1.32 0 2.64 0 4 0 C4 0.99 4 1.98 4 3 C6.97 3.33 9.94 3.66 13 4 C13 4.33 13 4.66 13 5 C5.73846154 5.61538462 5.73846154 5.61538462 2 2.5 C1.34 1.675 0.68 0.85 0 0 Z " fill="#77C642" transform="translate(78,134)"/>
<path d="M0 0 C1 3 1 3 0.4375 5.5625 C0.293125 6.366875 0.14875 7.17125 0 8 C0.66 8.66 1.32 9.32 2 10 C1.67 10.99 1.34 11.98 1 13 C-1.24510613 10.56780169 -1.97120564 9.28218472 -2.3125 5.9375 C-2 3 -2 3 0 0 Z " fill="#8BCF5A" transform="translate(53,98)"/>
<path d="M0 0 C0.33 0.66 0.66 1.32 1 2 C-0.125 4.5625 -0.125 4.5625 -2 7 C-4.6875 7.8125 -4.6875 7.8125 -7 8 C-6.02133662 6.85373678 -5.04205413 5.70800212 -4.0625 4.5625 C-3.51722656 3.92441406 -2.97195312 3.28632813 -2.41015625 2.62890625 C-1.63204305 1.73008851 -0.84063472 0.84063472 0 0 Z " fill="#DFF8CA" transform="translate(111,171)"/>
<path d="M0 0 C0.66 0.33 1.32 0.66 2 1 C2 1.66 2 2.32 2 3 C2.66 3 3.32 3 4 3 C4.33 4.65 4.66 6.3 5 8 C2.69 6.02 0.38 4.04 -2 2 C-1.34 1.34 -0.68 0.68 0 0 Z " fill="#70CA35" transform="translate(114,114)"/>
<path d="M0 0 C1.98 1.65 3.96 3.3 6 5 C3.92446352 5.5534764 2.15634036 6 0 6 C-1 3 -1 3 0 0 Z " fill="#78CC41" transform="translate(128,106)"/>
<path d="M0 0 C1.65 0 3.3 0 5 0 C4.67 0.99 4.34 1.98 4 3 C4.99 3.33 5.98 3.66 7 4 C5.35 4.33 3.7 4.66 2 5 C1.34 3.35 0.68 1.7 0 0 Z " fill="#E1F3D4" transform="translate(110,26)"/>
<path d="M0 0 C0.33 0.99 0.66 1.98 1 3 C-1.97 5.475 -1.97 5.475 -5 8 C-5.66 7.67 -6.32 7.34 -7 7 C-4.69 4.69 -2.38 2.38 0 0 Z " fill="#E6FDD3" transform="translate(99,78)"/>
<path d="M0 0 C0 3.10551666 -0.5393715 4.35261084 -2 7 C-3.32 6.67 -4.64 6.34 -6 6 C-4.02 4.02 -2.04 2.04 0 0 Z " fill="#DEF8C6" transform="translate(147,135)"/>
<path d="M0 0 C1.98 1.65 3.96 3.3 6 5 C5.34 5.66 4.68 6.32 4 7 C3.67 6.01 3.34 5.02 3 4 C1.68 4.33 0.36 4.66 -1 5 C-0.67 3.35 -0.34 1.7 0 0 Z " fill="#7BCD46" transform="translate(134,112)"/>
<path d="M0 0 C1.32 0.66 2.64 1.32 4 2 C1.03 4.475 1.03 4.475 -2 7 C-2.33 6.01 -2.66 5.02 -3 4 C-2.01 4 -1.02 4 0 4 C0 2.68 0 1.36 0 0 Z " fill="#74CA3C" transform="translate(92,80)"/>
<path d="M0 0 C2.35953094 2.35953094 2.49141413 3.77895617 3 7 C1.35 7.33 -0.3 7.66 -2 8 C-1.34 5.36 -0.68 2.72 0 0 Z " fill="#8ACB58" transform="translate(122,32)"/>
<path d="M0 0 C1.32 0.66 2.64 1.32 4 2 C2.35 3.32 0.7 4.64 -1 6 C-1.33 4.68 -1.66 3.36 -2 2 C-1.34 2 -0.68 2 0 2 C0 1.34 0 0.68 0 0 Z " fill="#72CA3A" transform="translate(82,90)"/>
</svg>
